<svg height="512" viewBox="0 0 74 74" width="512" xmlns="http://www.w3.org/2000/svg"><g id="Icons"><path d="m71 58h-68a1 1 0 0 1 -1-1v-40a1 1 0 0 1 1-1h68a1 1 0 0 1 1 1v40a1 1 0 0 1 -1 1zm-67-2h66v-38h-66z"/><path d="m62 53h-50a1 1 0 0 1 -1-1 3 3 0 0 0 -3-3 1 1 0 0 1 -1-1v-22a1 1 0 0 1 1-1 3 3 0 0 0 3-3 1 1 0 0 1 1-1h50a1 1 0 0 1 1 1 3 3 0 0 0 3 3 1 1 0 0 1 1 1v22a1 1 0 0 1 -1 1 3 3 0 0 0 -3 3 1 1 0 0 1 -1 1zm-49.1-2h48.2a5.015 5.015 0 0 1 3.9-3.9v-20.2a5.015 5.015 0 0 1 -3.9-3.9h-48.2a5.015 5.015 0 0 1 -3.9 3.9v20.2a5.015 5.015 0 0 1 3.9 3.9z"/><path d="m37 46a5.006 5.006 0 0 1 -5-5h2a3 3 0 0 0 6 0c0-1.931-2.032-2.727-3.243-3.03-3.023-.756-4.757-2.57-4.757-4.97a5 5 0 0 1 10 0h-2a3 3 0 0 0 -6 0c0 1.931 2.032 2.727 3.243 3.03 3.023.756 4.757 2.57 4.757 4.97a5.006 5.006 0 0 1 -5 5z"/><path d="m36 26h2v3h-2z"/><path d="m36 45h2v3h-2z"/><path d="m59 41a4 4 0 1 1 4-4 4 4 0 0 1 -4 4zm0-6a2 2 0 1 0 2 2 2 2 0 0 0 -2-2z"/><path d="m15 41a4 4 0 1 1 4-4 4 4 0 0 1 -4 4zm0-6a2 2 0 1 0 2 2 2 2 0 0 0 -2-2z"/></g></svg>